HIERARCHY
ROOT hip
{
  OFFSET 0 0 0
  CHANNELS 6 Xposition Yposition Zposition Zrotation Yrotation Xrotation
  JOINT abdomen
  {
    OFFSET 0 20.6881 -0.73152
    CHANNELS 3 Zrotation Xrotation Yrotation
    JOINT chest
    {
      OFFSET 0 11.7043 -0.48768
      CHANNELS 3 Zrotation Xrotation Yrotation
      JOINT neck
      {
        OFFSET 0 22.1894 -2.19456
        CHANNELS 3 Zrotation Xrotation Yrotation
        JOINT head
        {
          OFFSET -0.24384 7.07133 1.2192
          CHANNELS 3 Zrotation Xrotation Yrotation
          JOINT leftEye
          {
            OFFSET 4.14528 8.04674 8.04672
            CHANNELS 3 Zrotation Xrotation Yrotation
            End Site
            {
              OFFSET 1 0 0
            }
          }
          JOINT rightEye
          {
            OFFSET -3.6576 8.04674 8.04672
            CHANNELS 3 Zrotation Xrotation Yrotation
            End Site
            {
              OFFSET 1 0 0
            }
          }
        }
      }
      JOINT rCollar
      {
        OFFSET -2.68224 19.2634 -4.8768
        CHANNELS 3 Zrotation Xrotation Yrotation
        JOINT rShldr
        {
          OFFSET -8.77824 -1.95073 1.46304
          CHANNELS 3 Zrotation Xrotation Yrotation
          JOINT rForeArm
          {
            OFFSET -28.1742 -1.7115 0.48768
            CHANNELS 3 Zrotation Xrotation Yrotation
            JOINT rHand
            {
              OFFSET -22.5879 0.773209 7.07136
              CHANNELS 3 Zrotation Xrotation Yrotation
              JOINT rThumb1
              {
                OFFSET -1.2192 -0.487915 3.41376
                CHANNELS 3 Zrotation Xrotation Yrotation
                JOINT rThumb2
                {
                  OFFSET -3.37035 -0.52449 3.41376
                  CHANNELS 3 Zrotation Xrotation Yrotation
                  End Site
                  {
                    OFFSET -1.78271 -1.18214 1.43049
                  }
                }
              }
              JOINT rIndex1
              {
                OFFSET -7.75947 0.938293 5.60832
                CHANNELS 3 Zrotation Xrotation Yrotation
                JOINT rIndex2
                {
                  OFFSET -2.54057 -0.884171 1.56538
                  CHANNELS 3 Zrotation Xrotation Yrotation
                  End Site
                  {
                    OFFSET -1.62519 -0.234802 1.16502
                  }
                }
              }
              JOINT rMid1
              {
                OFFSET -8.24714 1.18213 3.41376
                CHANNELS 3 Zrotation Xrotation Yrotation
                JOINT rMid2
                {
                  OFFSET -3.10165 -0.590103 1.0647
                  CHANNELS 3 Zrotation Xrotation Yrotation
                  End Site
                  {
                    OFFSET -2.48547 -0.328903 0.83742
                  }
                }
              }
              JOINT rRing1
              {
                OFFSET -8.82822 0.546677 1.51678
                CHANNELS 3 Zrotation Xrotation Yrotation
                JOINT rRing2
                {
                  OFFSET -2.60934 -0.819778 -0.0198488
                  CHANNELS 3 Zrotation Xrotation Yrotation
                  End Site
                  {
                    OFFSET -2.33842 -0.294052 0.168128
                  }
                }
              }
              JOINT rPinky1
              {
                OFFSET -8.27202 -0.0477905 -0.4584
                CHANNELS 3 Zrotation Xrotation Yrotation
                JOINT rPinky2
                {
                  OFFSET -1.82734 -0.647385 -0.700984
                  CHANNELS 3 Zrotation Xrotation Yrotation
                  End Site
                  {
                    OFFSET -1.69225 -0.51767 -0.607171
                  }
                }
              }
            }
          }
        }
      }
      JOINT lCollar
      {
        OFFSET 2.68224 19.2634 -4.8768
        CHANNELS 3 Zrotation Xrotation Yrotation
        JOINT lShldr
        {
          OFFSET 8.77824 -1.95073 1.46304
          CHANNELS 3 Zrotation Xrotation Yrotation
          JOINT lForeArm
          {
            OFFSET 28.1742 -1.7115 0.48768
            CHANNELS 3 Zrotation Xrotation Yrotation
            JOINT lHand
            {
              OFFSET 22.5879 0.773209 7.07136
              CHANNELS 3 Zrotation Xrotation Yrotation
              JOINT lThumb1
              {
                OFFSET 1.2192 -0.487915 3.41376
                CHANNELS 3 Zrotation Xrotation Yrotation
                JOINT lThumb2
                {
                  OFFSET 3.37035 -0.52449 3.41376
                  CHANNELS 3 Zrotation Xrotation Yrotation
                  End Site
                  {
                    OFFSET 1.78271 -1.18214 1.43049
                  }
                }
              }
              JOINT lIndex1
              {
                OFFSET 7.75947 0.938293 5.60832
                CHANNELS 3 Zrotation Xrotation Yrotation
                JOINT lIndex2
                {
                  OFFSET 2.54057 -0.884171 1.56538
                  CHANNELS 3 Zrotation Xrotation Yrotation
                  End Site
                  {
                    OFFSET 1.62519 -0.234802 1.16502
                  }
                }
              }
              JOINT lMid1
              {
                OFFSET 8.24714 1.18213 3.41376
                CHANNELS 3 Zrotation Xrotation Yrotation
                JOINT lMid2
                {
                  OFFSET 3.10165 -0.590103 1.0647
                  CHANNELS 3 Zrotation Xrotation Yrotation
                  End Site
                  {
                    OFFSET 2.48547 -0.328903 0.83742
                  }
                }
              }
              JOINT lRing1
              {
                OFFSET 8.82822 0.546677 1.51678
                CHANNELS 3 Zrotation Xrotation Yrotation
                JOINT lRing2
                {
                  OFFSET 2.60934 -0.819778 -0.0198488
                  CHANNELS 3 Zrotation Xrotation Yrotation
                  End Site
                  {
                    OFFSET 2.33842 -0.294052 0.168128
                  }
                }
              }
              JOINT lPinky1
              {
                OFFSET 8.27202 -0.0477905 -0.4584
                CHANNELS 3 Zrotation Xrotation Yrotation
                JOINT lPinky2
                {
                  OFFSET 1.82734 -0.647385 -0.700984
                  CHANNELS 3 Zrotation Xrotation Yrotation
                  End Site
                  {
                    OFFSET 1.69225 -0.51767 -0.607171
                  }
                }
              }
            }
          }
        }
      }
    }
  }
  JOINT rButtock
  {
    OFFSET -8.77824 4.35084 1.2192
    CHANNELS 3 Zrotation Xrotation Yrotation
    JOINT rThigh
    {
      OFFSET 0 -1.70687 -2.19456
      CHANNELS 3 Zrotation Xrotation Yrotation
      JOINT rShin
      {
        OFFSET 0 -36.8199 0.73152
        CHANNELS 3 Zrotation Xrotation Yrotation
        JOINT rFoot
        {
          OFFSET 0.73152 -45.1104 -5.12064
          CHANNELS 3 Zrotation Xrotation Yrotation
          End Site
          {
            OFFSET -1.1221 -3.69964 12.103
          }
        }
      }
    }
  }
  JOINT lButtock
  {
    OFFSET 8.77824 4.35084 1.2192
    CHANNELS 3 Zrotation Xrotation Yrotation
    JOINT lThigh
    {
      OFFSET 0 -1.70687 -2.19456
      CHANNELS 3 Zrotation Xrotation Yrotation
      JOINT lShin
      {
        OFFSET 0 -36.8199 0.73152
        CHANNELS 3 Zrotation Xrotation Yrotation
        JOINT lFoot
        {
          OFFSET -0.73152 -45.1104 -5.12064
          CHANNELS 3 Zrotation Xrotation Yrotation
          End Site
          {
            OFFSET 1.1221 -3.69964 12.103
          }
        }
      }
    }
  }
}
MOTION
Frames:	8
Frame Time:	0.03333
-31.157400000000003 55.190799999999996 -279.4278 -13.425395 -24.606025 12.73306 6.013698 8.01825 58.367282 -4.195564 -9.125689 -56.776414 -11.642128 29.289889 -101.223621 37.886276 23.095252 110.531166 24.297679 0.33199 1.542093 6.171107 2.130281 38.059485 -8.867976 26.875207 11.721948 61.853032 -42.754595 -19.819888 172.822515 -46.98834 30.037308 -152.369778 23.292309 130.236776 171.263488 -11.233791 86.700229 142.30407 -56.88684 120.707679 -160.884784 -8.738417 116.391866 -4.056083 4.768777 -13.8944 -1.847153 -6.284652 1.583536 -154.341348 -27.136039 149.926049 -135.358214 1.585827 178.494267 129.640864 79.038876 -99.166838 -37.481124 -70.973451 -57.144612 -162.763327 22.649117 -163.639531 -5.43752 -16.731223 1.188454 -103.948488 -28.22483 -82.21092 -5.947307 28.447633 -7.730002 60.485399 76.998797 -61.856156 97.750581 39.498598 -56.262108 143.612345 -31.462831 -62.066768 3.77261 24.488581 -4.437147 -5.159556 -2.533612 9.436061 -4.925694 -33.119421 14.44511 162.07919 10.79885 -141.163289 122.786131 -52.160549 151.849634 -18.664447 27.815852 4.323602 -31.885573 23.367148 4.453169 164.651322 82.370403 -165.211588 164.38398 68.223347 9.30901 -179.792498 68.056456 -179.928312 -2.68523 -59.040635 -6.796735 -95.304236 48.210696 -158.453361 37.092076 20.742972 50.82685 -82.050884 -55.910581 -27.78923 50.012561 70.110716 -152.403001 -1.967121 21.033625 95.687149
-30.935499999999998 55.1332 -279.6944 -13.403701 -24.589069 12.723033 9.411222 8.693801 -36.330618 7.155978 -5.947396 38.401109 6.522796 18.483404 58.698192 -26.842294 -13.323834 -47.349861 24.049837 0.179573 0.843009 6.355818 2.162876 37.555032 -141.357646 37.305881 143.879742 -101.136866 8.017507 95.039446 -25.382274 -9.510467 -149.170364 -166.936319 -14.52057 145.494925 -172.151162 3.200575 85.306551 -132.006233 16.760995 49.728742 -131.552285 25.525722 97.89005 -174.363284 -5.301333 111.915849 -176.696508 -37.349935 142.178551 7.056716 -62.118193 -3.570159 -133.913704 -27.654821 -171.577895 37.195707 38.19698 -7.720908 -27.995783 70.91541 88.919868 37.138206 25.338178 -15.28974 153.433285 -6.068503 -160.280239 -78.129768 41.375918 66.70727 22.155016 61.90798 -27.982011 12.999138 49.472344 -21.491589 178.328365 -16.081132 -91.604677 149.237818 22.762201 -65.724366 2.282107 22.543671 -3.206802 164.943135 -7.534973 -118.482909 157.433458 5.937137 -150.489838 162.91976 -13.559859 -141.971788 -7.370593 1.749279 1.29616 157.542836 -6.655527 -168.681658 -46.874245 49.386854 4.111408 136.502054 -40.158679 91.411598 -2.791465 7.277399 -0.969675 -2.88307 -6.494439 -80.994398 -57.467518 7.160726 -71.570288 41.002661 -15.754331 130.812062 40.899945 25.192203 53.603059 -89.17772 -53.837449 -179.073805 -79.36444 -31.225069 -165.886072 -136.127336 64.507136 58.368121
-30.7143 55.0736 -279.9575 -13.38123 -24.550535 12.71237 5.70821 5.800203 114.328129 -8.032878 -2.875735 -112.738461 8.597885 21.759959 80.277534 -33.139792 -1.53513 -66.373785 23.858362 0.026013 0.123127 6.483794 2.175795 37.068115 -141.977484 36.36305 144.393161 -68.876142 9.190959 87.008473 11.771718 -4.619217 -139.934161 -151.402441 24.954131 129.325962 -7.389867 -6.175938 2.815459 23.09108 -7.606141 -9.669336 -15.689306 1.643066 3.611632 -10.017344 30.772259 20.560817 -159.675744 7.357864 138.041141 1.464214 -26.866877 5.59027 -135.616891 2.80681 178.433657 8.731732 -37.734801 -33.995819 -64.099137 71.713291 126.890334 -53.08422 -39.50617 -74.161428 0.484857 12.919351 -5.308008 -116.591283 -24.98695 -113.212984 -136.329206 -59.992255 -101.879558 -161.100262 -27.509098 -158.60153 4.090604 4.041863 1.316807 -43.761024 -61.471297 31.95117 171.93762 -72.739257 -121.90723 165.274739 -21.697219 -106.659688 161.754786 -81.363589 -166.585113 12.824532 28.241647 -11.076237 -7.279259 3.803137 0.787757 162.675088 -50.906143 -171.59078 -2.052032 -21.293192 23.139564 164.672363 -11.968397 173.184719 1.837117 7.482754 2.002252 -9.35057 -7.57788 164.942635 1.066762 -50.700517 -97.697488 -2.504081 68.879504 -98.299686 -5.79352 -7.220014 12.863883 56.434729 -70.71585 163.324325 71.054925 -27.977048 -134.409145 -114.498964 -62.465047 -2.34282
-30.4892 55.0132 -280.2168 -13.356393 -24.528123 12.712711 5.451518 7.296492 77.459541 -6.135134 -7.712428 -76.045971 -12.58803 27.508306 -90.994464 38.968475 17.661218 102.115144 23.79838 -0.109343 -0.518901 6.671328 2.208137 36.593559 -0.829756 0.35211 3.684046 -122.387854 18.673953 -144.583463 -145.724801 -23.97191 -57.24313 -8.766972 -58.434783 -16.975058 66.073194 -46.216639 31.922443 -56.344258 50.179523 25.914222 -3.97546 -16.295962 -1.271616 18.260941 13.178839 2.874709 -169.528563 -18.323411 142.24148 -162.560921 33.405096 134.407894 -135.84418 -1.04482 179.853743 -125.600459 -30.567432 -159.220269 -98.427891 62.52834 163.879828 41.548067 30.946246 -3.915281 157.279428 -33.402949 -165.200387 51.835169 -51.849358 101.82187 -177.593877 23.838655 170.972847 91.907286 78.904646 -91.841954 31.988367 27.284832 -10.54325 159.485949 -65.747955 -84.696933 48.05822 48.990846 -45.703355 6.187896 30.919573 4.355231 2.248544 16.056002 6.149401 19.100356 45.371398 -12.111689 137.706777 -5.385538 175.288564 -7.482663 -21.785489 17.196801 63.355159 -40.434763 81.216234 -29.831377 -28.447079 -26.87609 177.350312 68.163694 0.935386 166.726596 66.973065 -166.27386 -16.037281 -52.257268 -91.471649 56.822206 58.432113 -163.211092 -38.222408 -5.979793 -16.966263 98.767176 -46.360167 179.456128 77.994317 -30.673892 162.848133 -7.656851 49.282997 91.442951
-30.2588 54.957100000000004 -280.4683 -13.32793 -24.496768 12.710525 5.304655 6.701885 91.730766 -7.274196 -6.143034 -90.377925 -12.975654 25.776622 -81.142642 39.302167 11.92351 94.083985 23.850526 -0.23761 -1.125049 6.6843 2.191313 36.267013 -149.360126 20.902251 151.435537 136.68006 -5.703616 109.82869 173.487782 -13.321507 34.953188 -150.583149 26.288219 128.558106 65.958705 -46.07822 31.668852 -15.416928 -31.780392 -44.482188 2.746547 -27.056647 -2.543225 33.152643 -6.983347 -4.394927 -10.834506 14.304725 5.772705 -116.286578 49.608624 120.036398 -136.022164 0.331481 179.634089 42.774541 46.530443 -22.476853 -25.625586 -68.876109 -43.882358 -155.204735 -36.206278 -142.153196 -4.082878 -7.907798 -0.258768 -79.796852 -26.123827 -80.373039 -1.07408 12.120362 -8.9239 30.579773 68.462175 -34.432313 -7.355093 -7.921926 2.730122 110.493156 -10.727547 -124.576752 11.511814 32.441853 -11.417503 6.282958 22.380139 5.511274 161.942831 -27.25245 -155.872161 165.469502 -14.25159 -140.486285 138.164074 0.559012 177.029882 -20.403253 59.298071 11.14919 36.855298 -40.47027 57.07914 158.055665 -71.780738 171.975763 141.757072 64.99723 22.652736 -154.035422 65.526515 162.811325 10.566229 -54.25772 93.262722 -41.016976 -71.162149 43.583288 -86.805292 33.297835 -57.948915 151.286388 -5.566774 10.789543 -25.004049 77.392713 115.081697 -149.096032 -1.257919 79.707836
-30.023699999999998 54.9056 -280.7079 -13.29472 -24.475828 12.705827 5.778905 5.259153 129.44159 -8.107359 -0.974491 -127.927552 -13.088321 24.735405 -75.455998 39.111891 8.605654 89.478244 23.90351 -0.354364 -1.673969 6.554877 2.136962 36.08014 1.897003 -13.290906 1.103494 121.116376 44.431931 -73.486374 -4.661758 -37.593836 101.90802 -12.601452 -33.96921 -11.458232 178.341363 -6.212355 86.181828 -147.716914 20.571403 67.54078 -140.5657 17.198513 105.050776 -169.27101 1.74031 114.211596 -158.413339 11.152931 137.367035 -156.414691 30.914907 126.11677 -136.212691 -0.912341 -179.798958 -138.498117 1.467035 -166.649946 -98.208246 63.286146 163.202611 -33.800284 -44.313077 -58.50222 158.488935 -73.834636 -173.430745 -65.122645 13.414595 3.443326 47.836726 65.580458 -47.35944 4.015975 28.112546 -18.194564 155.840434 7.203669 -89.756168 112.261465 0.899614 -33.623757 -14.179301 -8.534351 9.446597 -141.479755 -59.712276 -89.271457 -3.613828 -19.47664 12.697522 -20.892389 -56.611629 -2.167426 -6.930115 1.914248 1.818354 142.79949 46.296054 -154.694623 -13.283553 -8.045329 14.565512 67.493827 60.90882 -78.302662 -0.863305 7.73837 -0.031272 -5.870582 -8.417038 -162.163937 -33.361176 -44.350227 -122.095329 148.508466 43.923019 136.333198 94.087648 78.397068 57.358785 -141.603875 -11.814054 74.680158 75.295173 -19.811775 -41.474862 -79.461256 31.913235 5.13691
-29.7843 54.8547 -280.9409 -13.262445 -24.489162 12.708743 5.406844 5.776985 114.763718 -8.245858 -3.126988 -113.418279 -12.695807 22.117739 -60.829505 37.411201 -0.068607 77.47591 24.036233 -0.470013 -2.207546 6.508191 2.107422 35.852685 -162.404376 -36.507081 163.421616 -68.41881 25.168467 17.325204 -51.998048 10.760498 -153.254491 -173.954556 -49.388789 153.868494 7.832715 -18.147726 4.217994 -122.060822 -47.970406 138.76583 2.432053 -25.846006 -2.447343 -70.917059 49.993685 68.84465 -3.04131 -4.904284 1.211842 179.255708 -74.165005 133.126548 -136.112442 7.656243 177.65007 -140.448819 -1.192819 -163.798319 -119.214235 30.467786 -168.715275 22.086826 -13.343939 0.279237 -5.548072 -16.740846 1.51376 110.444633 13.440536 -108.165545 -0.28569 -15.555018 41.907455 -83.753791 -66.183685 -87.73872 176.714923 -14.93106 -91.659656 28.239252 -61.778908 6.256929 145.009788 -28.628107 -130.015474 -10.589453 13.479989 -0.336128 95.561075 69.741963 -87.887213 135.746466 47.839191 -127.690273 138.313291 1.347148 176.985917 -177.416907 81.706434 162.358058 -89.34532 74.872491 32.688445 90.310841 -23.263439 61.573727 -5.445302 7.919123 -3.102719 -1.285651 -8.852443 178.143661 13.46166 -53.751992 99.651582 47.245781 23.408589 45.297372 -83.617665 29.197432 -55.794606 145.900782 -8.902326 96.963584 75.293481 24.420139 -162.839835 1.274374 -23.200527 87.69831
-29.5427 54.803599999999996 -281.1755 -13.239602 -24.506288 12.72072 7.048141 4.443391 167.554915 -5.622381 3.731724 -165.962729 -10.554186 18.354677 -37.117809 30.704001 -13.087311 56.588616 24.212961 -0.57575 -2.683684 6.485936 2.081034 35.546072 -146.825992 27.382407 148.611223 -87.749219 10.841517 81.943883 -25.862387 -0.266048 -144.352768 -167.148298 -15.203607 145.901569 -177.816532 -3.340387 85.651905 141.009173 -41.751358 107.251031 19.299289 -48.589318 -0.081521 20.616163 12.430297 -7.705912 13.778753 -47.938143 0.66798 -153.0381 17.785192 152.530399 8.657015 1.709125 1.190198 -24.476589 40.220285 24.685881 -80.294714 70.283573 142.923379 -140.474692 32.661192 -131.849236 158.990837 -62.808011 -170.515211 -60.373122 -5.609556 13.563743 -4.230428 52.36057 -7.817627 45.182883 74.39368 -47.448704 4.684793 5.24483 0.947335 -29.142564 -15.481872 15.181874 -74.214662 -80.265212 -16.658675 152.981213 -0.089797 -106.149863 -4.753937 -79.822969 23.635021 176.926785 -31.832295 -141.183781 -7.078273 10.759992 -0.638501 165.00948 -50.1009 -170.006898 125.085003 10.55089 130.478134 -45.608603 4.138934 11.320051 -0.323575 7.830645 0.068069 -6.985932 -8.714487 175.907928 -8.567125 -49.935977 -119.070423 -129.363399 -55.906333 152.870878 29.945539 13.030338 44.515675 -69.122007 -66.3278 -155.834543 -73.984809 -23.849938 39.98928 -93.394436 -79.436144 10.198466
